<?xml version="1.0" encoding="utf-8"?>
<!-- Generator: Adobe Illustrator 26.0.1, SVG Export Plug-In . SVG Version: 6.00 Build 0)  -->
<svg version="1.1" id="Layer_1" xmlns="http://www.w3.org/2000/svg" xmlns:xlink="http://www.w3.org/1999/xlink" x="0px" y="0px"
	 viewBox="0 0 512 512" style="enable-background:new 0 0 512 512;" xml:space="preserve">
<style type="text/css">
	.st0{fill:#DDA15E;}
	.st1{fill:#FFFFFF;}
</style>
<g id="Layer_1_00000029765523849081529820000007600380392131927449_">
	<path class="st0" d="M256,8C119,8,8,119,8,256s111,248,248,248s248-111,248-248S393,8,256,8z"/>
</g>
<g id="Layer_2_00000124128483397906271280000006384030533401374638_">
	<path class="st1" d="M177,311.7c-12.8,0-23.2-10.4-23.2-23.2V186.3c0-12.8,10.4-23.2,23.2-23.2h158c12.8,0,23.2,10.4,23.2,23.2
		v102.2c0,12.8-10.4,23.2-23.2,23.2L177,311.7L177,311.7z M172.3,186.3v102.2c0,2.5,2.2,4.6,4.6,4.6h158c2.5,0,4.6-2.2,4.6-4.6
		V186.3c0-2.5-2.2-4.6-4.6-4.6H177C174.5,181.7,172.3,183.9,172.3,186.3z M372.1,321.1h23.2v14c0,7.7-10.4,14-23.2,14H139.9
		c-12.8,0-23.2-6.3-23.2-14v-14H372.1z M267.7,335c1.3,0,2.3-1,2.3-2.3s-1-2.3-2.3-2.3h-23.2c-1.3,0-2.3,1-2.3,2.3s1,2.3,2.3,2.3
		H267.7z"/>
</g>
</svg>
