<?xml version="1.0" encoding="utf-8"?>
<!-- Generator: Adobe Illustrator 26.0.1, SVG Export Plug-In . SVG Version: 6.00 Build 0)  -->
<svg version="1.1" xmlns="http://www.w3.org/2000/svg" xmlns:xlink="http://www.w3.org/1999/xlink" x="0px" y="0px"
	 viewBox="0 0 512 512" style="enable-background:new 0 0 512 512;" xml:space="preserve">
<style type="text/css">
	.st0{fill:#DDA15E;}
	.st1{fill:#FFFFFF;}
</style>
<g id="Layer_1">
	<path class="st0" d="M256,8C119,8,8,119,8,256s111,248,248,248s248-111,248-248S393,8,256,8z"/>
</g>
<g id="Layer_2">
	<path class="st1" d="M212.9,245.2h86.2v-32.3c0-23.7-19.4-43.1-43.1-43.1s-43.1,19.4-43.1,43.1V245.2z M353,261.4v97
		c0,8.9-7.2,16.2-16.2,16.2H175.2c-8.9,0-16.2-7.2-16.2-16.2v-97c0-8.9,7.2-16.2,16.2-16.2h5.4v-32.3c0-41.4,34-75.4,75.4-75.4
		s75.4,34,75.4,75.4v32.3h5.4C345.8,245.2,353,252.5,353,261.4z"/>
</g>
</svg>
