<svg xmlns="http://www.w3.org/2000/svg" xmlns:xlink="http://www.w3.org/1999/xlink" viewBox="0 0 1429.33 419.15"><defs><style>.cls-1{fill:url(#radial-gradient);}.cls-2{fill:#b9874a;}.cls-3{fill:url(#radial-gradient-2);}.cls-4{fill:url(#radial-gradient-3);}.cls-5{fill:url(#radial-gradient-4);}.cls-6{fill:#030501;}.cls-7{font-size:195.9px;}.cls-7,.cls-9{fill:#8bb817;font-family:Montserrat-Regular, Montserrat;}.cls-8{letter-spacing:-0.01em;}.cls-9{font-size:198.89px;}.cls-10{letter-spacing:0em;}.cls-11{letter-spacing:0em;}.cls-12{letter-spacing:-0.01em;}.cls-13{letter-spacing:0em;}</style><radialGradient id="radial-gradient" cx="-7.86" cy="415.34" r="15.9" gradientTransform="matrix(20.03, 5.75, 4.83, -16.81, -1616.26, 7065.9)" gradientUnits="userSpaceOnUse"><stop offset="0" stop-color="#f0b652"/><stop offset="0.12" stop-color="#ecb250"/><stop offset="0.23" stop-color="#e0a74a"/><stop offset="0.35" stop-color="#cd943f"/><stop offset="0.46" stop-color="#b17a30"/><stop offset="0.53" stop-color="#9c6625"/><stop offset="0.57" stop-color="#956123"/><stop offset="0.78" stop-color="#714a18"/><stop offset="0.89" stop-color="#634114"/></radialGradient><radialGradient id="radial-gradient-2" cx="-17.77" cy="442.54" r="11.1" gradientTransform="matrix(15.15, -9.29, -10.89, -17.76, 5285.35, 7941.11)" gradientUnits="userSpaceOnUse"><stop offset="0" stop-color="#d6d21c"/><stop offset="0.14" stop-color="#d2d11c"/><stop offset="0.3" stop-color="#c5cd1b"/><stop offset="0.46" stop-color="#b0c61a"/><stop offset="0.62" stop-color="#92bd18"/><stop offset="0.64" stop-color="#8ebc18"/><stop offset="0.7" stop-color="#88b517"/><stop offset="0.8" stop-color="#78a115"/><stop offset="0.91" stop-color="#5e8211"/><stop offset="1" stop-color="#44630d"/></radialGradient><radialGradient id="radial-gradient-3" cx="-17.77" cy="442.54" r="6.3" gradientTransform="matrix(15.15, -9.29, -10.89, -17.76, 5285.35, 7941.11)" gradientUnits="userSpaceOnUse"><stop offset="0.35" stop-color="#090d02"/><stop offset="0.43" stop-color="#172105"/><stop offset="0.61" stop-color="#3b550b"/><stop offset="0.75" stop-color="#5a8211"/><stop offset="0.94" stop-color="#74a916" stop-opacity="0.22"/><stop offset="1" stop-color="#7cb518" stop-opacity="0"/></radialGradient><radialGradient id="radial-gradient-4" cx="-17.77" cy="442.54" r="7.04" gradientTransform="matrix(15.15, -9.29, -10.89, -17.76, 5285.35, 7941.11)" gradientUnits="userSpaceOnUse"><stop offset="0" stop-color="#fbfece"/><stop offset="0.17" stop-color="#fafecc"/><stop offset="0.27" stop-color="#f5fcc4"/><stop offset="0.34" stop-color="#eef9b6"/><stop offset="0.41" stop-color="#e4f5a2"/><stop offset="0.47" stop-color="#d7f089"/><stop offset="0.5" stop-color="#cdec77"/><stop offset="0.63" stop-color="#b8d950"/><stop offset="0.82" stop-color="#99bf19"/></radialGradient></defs><g id="icons8-kiwi-fruit-1000_Image" data-name="icons8-kiwi-fruit-1000 Image"><path class="cls-1" d="M124.19,59.12A352.18,352.18,0,0,0,85.68,84.25l201.1,336c15.17-6.28,29.63-14.81,44.29-23.79,118-72.35,167-207,110.46-299.24S247.31-9.8,124.19,59.12Z" transform="translate(-20.33 -16.13)"/><ellipse class="cls-2" cx="196.11" cy="246.41" rx="167.39" ry="196.29" transform="translate(-120.22 122.75) rotate(-31.52)"/><path class="cls-3" d="M328.61,165.17c52.62,85.82,36,191.76-37.23,236.63S116.22,413.49,63.59,327.69s-36-191.76,37.23-236.64S276,79.37,328.61,165.17Z" transform="translate(-20.33 -16.13)"/><path class="cls-4" d="M291.51,187.92C329.4,249.71,317.4,326,264.71,358.3s-126.12,8.41-164-53.36S74.82,166.88,127.51,134.56,253.62,126.14,291.51,187.92Z" transform="translate(-20.33 -16.13)"/><path class="cls-5" d="M248.28,228.79c11.41-13.88,29.23-28.5,54.49-47.76-29.73,14.29-51.39,23.81-69.32,27.39,4.19-18.94,14.13-41.6,28.9-72.61-19.23,26-33.74,44.33-47.28,55.84-2.63-20-2-45.54,0-80.62-7.64,33.33-13.87,57.19-21.65,74-9.33-18.52-17.75-43.86-28.43-79,5.06,35.79,8,61.72,7.14,81.34-14.68-14.36-31-35.79-52.68-65.93,17.68,34.28,29.72,59.16,35.64,79.13-18.41-7.26-41.13-21.27-72.39-41.72,27.2,24.57,46.49,42.93,59.24,59.25-18.4,0-42.53-4.36-75.79-11.43,32.42,13,55.74,23.2,72.63,34-16.07,7.5-38.7,13-70.25,19.6,32.93-.4,56.88.09,75.45,3.84-11.41,13.88-29.23,28.5-54.48,47.77,29.72-14.29,51.38-23.82,69.32-27.4-4.19,19-14.13,41.6-28.91,72.61,19.24-26,33.75-44.33,47.28-55.83,2.64,20,2,45.53,0,80.61,7.64-33.32,13.87-57.19,21.65-74,9.33,18.51,17.74,43.85,28.44,79-5.07-35.78-8-61.72-7.14-81.33,14.68,14.36,30.95,35.78,52.67,65.93-17.68-34.29-29.71-59.17-35.63-79.13,18.41,7.25,41.12,21.26,72.38,41.72-27.19-24.58-46.49-42.94-59.23-59.26,18.4,0,42.53,4.36,75.79,11.43-32.43-13-55.75-23.2-72.63-34,16.07-7.5,38.7-13,70.25-19.59C290.8,233,266.86,232.54,248.28,228.79Z" transform="translate(-20.33 -16.13)"/><path class="cls-6" d="M128.24,158.3c4.93,5.57,8.3,21.91,8.3,21.91s-15.12-4.51-20.06-10.08-6.3-12.74-3.07-16S123.29,152.73,128.24,158.3Z" transform="translate(-20.33 -16.13)"/><path class="cls-6" d="M273,320.09c-5-5.51-20.15-9.78-20.15-9.78s3.59,16.32,8.59,21.83,11.65,7.26,14.83,3.93S278,325.58,273,320.09Z" transform="translate(-20.33 -16.13)"/><path class="cls-6" d="M162.5,141.64c2.72,6.93-.11,22.45-.11,22.45s-13-10.42-15.75-17.35-1.37-13.69,3-15.09S159.77,134.71,162.5,141.64Z" transform="translate(-20.33 -16.13)"/><path class="cls-6" d="M244.66,342.65c-2.93-6.85-16.25-16.82-16.25-16.82s-2.31,15.7.64,22.56,8.81,11.12,13.13,9.54S247.61,349.5,244.66,342.65Z" transform="translate(-20.33 -16.13)"/><path class="cls-6" d="M200.47,141.75c.16,7.15-8.21,19.45-8.21,19.45s-9-14.47-9.15-21.63,3.58-12.46,8.38-11.86S200.3,134.6,200.47,141.75Z" transform="translate(-20.33 -16.13)"/><path class="cls-6" d="M209.22,350.59c-.45-7.18-10-21.31-10-21.31s-7.82,12.76-7.37,19.93,4.7,13.31,9.49,13.7S209.68,357.77,209.22,350.59Z" transform="translate(-20.33 -16.13)"/><path class="cls-6" d="M237.45,157.56c-2.4,6.29-15,13.52-15,13.52s-3.61-16.32-1.21-22.61,8-9.36,12.45-6.85S239.86,151.26,237.45,157.56Z" transform="translate(-20.33 -16.13)"/><path class="cls-6" d="M172,343.27c2.08-6.47-2.3-22.68-2.3-22.68s-12.14,8-14.22,14.45-.05,13.54,4.51,15.82S169.94,349.73,172,343.27Z" transform="translate(-20.33 -16.13)"/><path class="cls-6" d="M268.53,187.39c-4.66,4.42-19.62,5.36-19.62,5.36s2.45-15.65,7.1-20.08,11.23-4.73,14.68-.66S273.18,183,268.53,187.39Z" transform="translate(-20.33 -16.13)"/><path class="cls-6" d="M136.16,320c4.43-4.69,6.18-20.54,6.18-20.54s-14.8,1.69-19.22,6.38-5.09,11.66-1.48,15.57S131.74,324.67,136.16,320Z" transform="translate(-20.33 -16.13)"/><path class="cls-6" d="M287.62,225.29c-6.14,1.93-21.11-3.43-21.11-3.43s8-12.6,14.14-14.54,12.67.52,14.6,5.48S293.76,223.36,287.62,225.29Z" transform="translate(-20.33 -16.13)"/><path class="cls-6" d="M110.3,285.21c6-2.21,13.51-15.22,13.51-15.22s-15.07-4.76-21.11-2.56-9.22,8-7.12,12.88S104.28,287.41,110.3,285.21Z" transform="translate(-20.33 -16.13)"/><path class="cls-6" d="M292.8,265.18c-6.7-.78-19.52-11.51-19.52-11.51s12.25-7.83,19-7,12.26,5.56,12.42,10.69S299.5,266,292.8,265.18Z" transform="translate(-20.33 -16.13)"/><path class="cls-6" d="M97.6,245.47c6.69.56,18.65-7.72,18.65-7.72s-13.09-10.33-19.78-10.89S84.6,230,84.92,235.16,90.92,244.91,97.6,245.47Z" transform="translate(-20.33 -16.13)"/><path class="cls-6" d="M284.2,302C277.88,298.59,269,284,269,284s14.74-2,21.05,1.42,10.11,9.79,8.49,14.35S290.51,305.32,284.2,302Z" transform="translate(-20.33 -16.13)"/><path class="cls-6" d="M99.5,205.59c6.36,3.21,21,.89,21,.89s-9.16-14.37-15.52-17.6-12.75-2.09-14.27,2.52S93.14,202.37,99.5,205.59Z" transform="translate(-20.33 -16.13)"/></g><g id="Layer_5" data-name="Layer 5"><text class="cls-7" transform="translate(463.89 183.38) scale(0.99 1)"><tspan class="cls-8">k</tspan><tspan x="116.17" y="0">iwi</tspan></text><text class="cls-9" transform="translate(464 357.92) scale(0.98 1)">i<tspan class="cls-10" x="53.5" y="0">n</tspan><tspan class="cls-11" x="188.54" y="0">dust</tspan><tspan class="cls-12" x="635.24" y="0">r</tspan><tspan class="cls-13" x="713.4" y="0">ies</tspan></text></g></svg>