<?xml version="1.0" encoding="utf-8"?>
<!-- Generator: Adobe Illustrator 26.0.1, SVG Export Plug-In . SVG Version: 6.00 Build 0)  -->
<svg version="1.1" xmlns="http://www.w3.org/2000/svg" xmlns:xlink="http://www.w3.org/1999/xlink" x="0px" y="0px"
	 viewBox="0 0 512 512" style="enable-background:new 0 0 512 512;" xml:space="preserve">
<style type="text/css">
	.st0{fill:#DDA15E;}
	.st1{fill:#FFFFFF;}
</style>
<g id="Layer_1">
	<path class="st0" d="M256,8C119,8,8,119,8,256s111,248,248,248s248-111,248-248S393,8,256,8z"/>
</g>
<g id="Layer_2">
	<path class="st1" d="M380.7,197.2L357,221c-2.4,2.4-6.3,2.4-8.8,0L291,163.8c-2.4-2.4-2.4-6.3,0-8.8l23.8-23.8
		c9.6-9.6,25.3-9.6,35,0l31,31C390.4,171.9,390.4,187.5,380.7,197.2z M270.5,175.4L135.1,310.8l-10.9,62.7
		c-1.5,8.5,5.9,15.8,14.3,14.3l62.7-11l135.4-135.4c2.4-2.4,2.4-6.3,0-8.8l-57.2-57.2C276.9,173,273,173,270.5,175.4L270.5,175.4z
		 M188,299.2c-2.8-2.8-2.8-7.4,0-10.2l79.4-79.4c2.8-2.8,7.4-2.8,10.2,0c2.8,2.8,2.8,7.4,0,10.2l-79.4,79.4
		C195.4,302.1,190.8,302.1,188,299.2L188,299.2z M169.4,342.6h24.8v18.7l-33.3,5.8l-16-16l5.8-33.3h18.7V342.6z"/>
</g>
</svg>
